<?xml version="1.0" encoding="utf-8"?>
<!-- Generator: Adobe Illustrator 20.1.0, SVG Export Plug-In . SVG Version: 6.00 Build 0)  -->
<svg version="1.1" id="Layer_1" xmlns="http://www.w3.org/2000/svg" xmlns:xlink="http://www.w3.org/1999/xlink" x="0px" y="0px"
	 width="52.3px" height="51px" viewBox="0 0 52.3 51" style="enable-background:new 0 0 52.3 51;" xml:space="preserve">
<style type="text/css">
	.st0{fill:#414042;}
</style>
<path class="st0" d="M19.2,0.9C21.5,0.3,23.8,0,26.1,0s4.7,0.3,6.9,0.9c2.3,0.6,4.3,1.5,6.3,2.6C41.2,4.6,43,6,44.6,7.6
	s3,3.4,4.1,5.3s2,4,2.6,6.3s0.9,4.6,0.9,6.9c0,2.8-0.4,5.6-1.3,8.2c-0.9,2.7-2.1,5-3.7,7.2s-3.5,4-5.7,5.6s-4.6,2.9-7.2,3.7
	c-0.6,0.1-1,0-1.3-0.2s-0.4-0.6-0.4-1c0-0.1,0-0.9,0-2.6c0-1.7,0-3.2,0-4.6c0-1.1-0.2-2.1-0.5-2.9c-0.3-0.8-0.8-1.4-1.3-1.9
	c0.9-0.1,1.7-0.2,2.5-0.4s1.6-0.4,2.4-0.7s1.6-0.7,2.2-1.1c0.7-0.4,1.3-1,1.9-1.6c0.6-0.7,1.1-1.4,1.5-2.2s0.7-1.8,1-3
	c0.2-1.2,0.4-2.4,0.4-3.9c0-2.7-0.9-5.1-2.7-7c0.1-0.3,0.2-0.6,0.3-0.9s0.2-0.8,0.2-1.4c0.1-0.6,0.1-1.3-0.1-2.1
	c-0.1-0.8-0.4-1.6-0.7-2.5c-0.1,0-0.2,0-0.3-0.1c-0.1,0-0.4,0-0.8,0s-0.9,0.1-1.4,0.3s-1.2,0.4-2,0.9s-1.7,0.9-2.7,1.6
	c-2.1-0.6-4.2-0.9-6.5-0.9s-4.5,0.3-6.5,0.9c-0.9-0.6-1.8-1.2-2.7-1.6c-0.8-0.4-1.5-0.7-2.1-0.8c-0.5-0.1-1-0.2-1.4-0.3
	s-0.7-0.1-0.8,0l-0.3,0.1c-0.3,0.7-0.5,1.4-0.6,2s-0.2,1.3-0.2,1.7c0,0.5,0,1,0.1,1.4c0.1,0.5,0.1,0.8,0.2,1.1
	c0.1,0.2,0.1,0.5,0.2,0.6c-1.8,2-2.7,4.3-2.7,7c0,1.4,0.1,2.7,0.4,3.8c0.2,1.2,0.6,2.2,1,3c0.4,0.8,0.9,1.6,1.5,2.2
	c0.6,0.7,1.3,1.2,1.9,1.6c0.7,0.4,1.4,0.8,2.2,1.1c0.8,0.3,1.6,0.5,2.4,0.7s1.6,0.3,2.5,0.4c-0.9,0.8-1.4,1.9-1.7,3.5
	c-0.4,0.2-0.8,0.3-1.1,0.4c-0.4,0.1-0.9,0.2-1.5,0.2s-1.2,0-1.7-0.1s-1.1-0.4-1.7-0.9c-0.6-0.5-1.1-1.1-1.6-1.8
	c0-0.1-0.1-0.2-0.2-0.3c-0.1-0.1-0.2-0.3-0.5-0.6s-0.5-0.6-0.8-0.8s-0.7-0.4-1.1-0.7c-0.5-0.2-0.9-0.3-1.4-0.4c-0.1,0-0.2,0-0.3,0
	S7.2,36,7,36.1s0,0.4-0.1,0.5s0,0.3,0.1,0.5s0.4,0.5,0.9,0.8C8,37.9,8,38,8.1,38c0.1,0.1,0.2,0.2,0.5,0.4s0.5,0.4,0.7,0.7
	s0.5,0.6,0.8,1.1s0.5,1,0.8,1.6c0,0.1,0.1,0.2,0.1,0.3c0.1,0.1,0.2,0.3,0.4,0.7c0.2,0.3,0.4,0.7,0.7,0.9c0.3,0.3,0.6,0.6,1.1,0.9
	c0.5,0.4,1,0.6,1.6,0.7c0.6,0.1,1.3,0.2,2.1,0.3c0.8,0.1,1.8,0,2.8-0.3c0,0.6,0,1.3,0,1.9c0,0.7,0,1.2,0,1.6s0,0.7,0,0.9
	c0,0.4-0.1,0.7-0.4,1S18.6,51.1,18,51c-2.6-0.9-5-2.1-7.2-3.7c-2.2-1.6-4.1-3.5-5.7-5.6s-2.8-4.5-3.7-7.2S0,29,0,26.1
	c0-2.4,0.3-4.7,0.9-6.9s1.5-4.3,2.6-6.3S6,9.2,7.6,7.6s3.4-3,5.3-4.1S16.9,1.6,19.2,0.9z"/>
</svg>
