<?xml version="1.0" encoding="utf-8"?>
<!-- Generator: Adobe Illustrator 20.1.0, SVG Export Plug-In . SVG Version: 6.00 Build 0)  -->
<svg version="1.1" id="Layer_1" xmlns="http://www.w3.org/2000/svg" xmlns:xlink="http://www.w3.org/1999/xlink" x="0px" y="0px"
	 width="630.7px" height="404px" viewBox="0 0 630.7 404" style="enable-background:new 0 0 630.7 404;" xml:space="preserve">
<style type="text/css">
	.st0{fill:#E88024;}
	.st1{fill:#EFA768;}
	.st2{fill:#667331;}
	.st3{fill:#9DA176;}
	.st4{fill:#7D2717;}
	.st5{fill:#9D5C44;}
	.st6{fill:#34401A;}
	.st7{fill:#5C6141;}
	.st8{fill:#F1C617;}
	.st9{fill:#F8DE93;}
	.st10{fill:#F15629;}
	.st11{fill:#F58257;}
	.st12{fill:#FDC70D;}
	.st13{fill:#C93327;}
	.st14{fill:#A4C63A;}
	.st15{fill:#CADFCD;}
	.st16{fill:#DDEADF;}
	.st17{fill:#025157;}
	.st18{fill:#688188;}
	.st19{fill:#F16565;}
	.st20{fill:#F7A096;}
	.st21{fill:#ECE5DB;}
	.st22{fill:#F2EEE7;}
</style>
<path class="st15" d="M425.7,18.9c0.2-0.3,0.7-0.4,1-0.1c0.2,0.3,0.1,0.6-0.2,1l-1.9,2.7c-1,1.5-1.6,3.6-0.5,5l1.7,2.1
	c0.7,1,0.7,2.4-0.3,3.1c-1,0.8-2.4,0.7-3.2-0.3l-1.2-1.6c-0.4-0.6-1.3-0.7-1.8-0.2v0c-0.6,0.4-0.7,1.3-0.2,1.8l1.4,1.8
	c0.8,1.1,0.7,2.6-0.3,3.5c-1.1,0.9-2.6,0.7-3.5-0.4l-2-2.5c-0.2-0.2-0.5-0.3-0.8-0.1l0,0c-0.2,0.2-0.3,0.5-0.1,0.8l3.5,4.4
	c1.4,1.7,1.2,4.2-0.5,5.6c-1.7,1.4-4.3,1.1-5.6-0.6l-1.2-1.5c-0.7-0.9-2-1-2.8-0.3v0c-0.9,0.7-1,2-0.3,2.8l2.1,2.7
	c2.9,3.7,2.5,9-1.1,12c-3.7,3.1-9.2,2.5-12.2-1.3l-2.2-2.8c-0.3-0.4-0.8-0.4-1.2-0.1l0,0c-0.4,0.3-0.4,0.8-0.1,1.2l0.1,0.1
	c1.4,1.8,1.3,4.5-0.5,6c-1.9,1.6-4.7,1.3-6.2-0.6l-2.1-2.6c-0.5-0.6-1.3-0.7-1.9-0.2l-1.6,1.3c-0.4,0.3-1,0.5-1.5,0.4
	c-0.5-0.1-1-0.3-1.3-0.8l-1.2-1.5l47-37.1L425.7,18.9z"/>
<path class="st16" d="M394.3,35.3L394.3,35.3c0.5-0.4,0.6-1.1,0.2-1.6l-1.7-2.1c-1.6-2-1.4-5,0.5-6.7c2.1-1.8,5.3-1.5,6.9,0.7
	l2.6,3.3c1.1,1.4,3.1,1.6,4.5,0.5v0c1.4-1.1,1.6-3.1,0.5-4.5l-1.7-2.1c-1.1-1.4-1-3.4,0.3-4.6c1.4-1.3,3.7-1.1,4.8,0.4l3.1,3.9
	c0.3,0.4,1,0.5,1.4,0.2v0c0.4-0.3,0.5-1,0.2-1.4L415,20c-0.7-0.9-0.7-2.2,0.1-3c1-1,2.5-0.9,3.3,0.2l0.5,0.6c1.6,2,4.1,5.1,4.1,5.1
	l0,0c-14.4,15.2-30.8,28.3-48.8,38.9l-2.1,1.3c-0.9,0.7-2.3,0.6-3.1-0.3c-0.8-1-0.7-2.4,0.3-3.2l1-0.8c0.4-0.3,0.5-0.9,0.2-1.3
	L370,57c-0.7-1-0.7-2.4,0.3-3.1c1-0.8,2.4-0.7,3.2,0.3l0,0c0.6,0.7,1.6,0.8,2.3,0.3l0.2-0.1c0.7-0.6,0.8-1.6,0.3-2.3l-2.9-3.6
	c-1.2-1.5-0.9-3.7,0.7-4.8c1.5-1,3.5-0.6,4.6,0.8l0.1,0.1c0.4,0.6,1.2,0.6,1.8,0.2l0,0c0.6-0.4,0.6-1.2,0.2-1.8l-1.5-1.9
	c-2.4-3-2.1-7.5,0.9-10c3.1-2.6,7.8-2.1,10.3,1l2.4,3.1C393.1,35.6,393.8,35.7,394.3,35.3z"/>
<path class="st17" d="M577.9,243.3c-0.1-0.8,0.5-1.6,1.4-1.5c0.8,0.1,1,0.8,1.2,1.7l0.9,6.9c0.5,3.7,2.6,7.8,6.3,8.4l5.6,0.9
	c2.5,0.4,4.3,2.6,4,5.1c-0.3,2.6-2.7,4.4-5.3,4l-4.1-0.6c-1.5-0.2-2.9,0.8-3.1,2.3l0,0c-0.2,1.5,0.8,2.9,2.3,3.1l4.7,0.7
	c2.7,0.4,4.8,2.9,4.5,5.7c-0.4,2.9-3,4.8-5.8,4.4l-6.5-1c-0.6-0.1-1.2,0.3-1.3,1l0,0c-0.1,0.6,0.3,1.2,1,1.3l11.6,1.8
	c4.5,0.7,7.8,4.8,7.2,9.3c-0.6,4.6-4.9,7.7-9.4,7l-4-0.6c-2.3-0.4-4.4,1.2-4.8,3.5l0,0c-0.4,2.3,1.2,4.4,3.5,4.8l7,1.1
	c9.6,1.5,16.5,10.2,15.3,19.8c-1.3,10-10.5,16.8-20.4,15.3l-7.3-1.1c-1-0.2-1.9,0.5-2.1,1.5l0,0c-0.2,1,0.5,1.9,1.5,2.1l0.4,0.1
	c4.8,0.7,8.3,5,7.8,9.8c-0.6,5.1-5.3,8.7-10.3,7.9l-6.8-1.1c-1.5-0.2-2.9,0.8-3.1,2.3l-0.7,4.3c-0.2,1.1-0.8,2.1-1.6,2.7
	c-0.9,0.6-1.9,0.9-3.1,0.7l-4-0.6l19.1-122.8L577.9,243.3z"/>
<path class="st18" d="M553.3,312.7L553.3,312.7c0.2-1.3-0.7-2.4-1.9-2.6l-5.5-0.9c-5.3-0.8-9.3-5.6-8.7-11c0.6-5.7,5.9-9.7,11.5-8.8
	l8.6,1.3c3.6,0.6,7-1.9,7.6-5.5l0,0c0.6-3.6-1.9-7-5.5-7.6l-5.5-0.9c-3.6-0.6-6.4-3.8-6.1-7.5c0.4-4,4-6.8,7.9-6.2l10.2,1.6
	c1.1,0.2,2.2-0.6,2.4-1.7l0,0c0.2-1.1-0.6-2.2-1.7-2.4l-3.6-0.6c-2.3-0.4-4.1-2.3-4-4.7c0.1-2.8,2.6-4.8,5.3-4.4l1.5,0.2
	c5.3,0.8,13.4,2,13.4,2v0c-0.4,43.4-6.9,86.6-19.3,128.2l-1.5,5c-0.4,2.5-2.6,4.3-5.1,4c-2.6-0.3-4.4-2.7-4-5.3l0.4-2.7
	c0.2-1.1-0.6-2-1.6-2.2L547,380c-2.5-0.4-4.3-2.6-4-5.1c0.3-2.6,2.7-4.4,5.3-4l0,0c1.8,0.3,3.6-1,3.8-2.8l0.1-0.4
	c0.3-1.8-1-3.6-2.8-3.8l-9.4-1.5c-3.9-0.6-6.6-4.4-5.7-8.3c0.8-3.6,4.4-5.8,8-5.3l0.4,0.1c1.4,0.2,2.8-0.8,3-2.2l0,0
	c0.2-1.4-0.8-2.8-2.2-3l-5-0.8c-8-1.2-13.8-8.5-12.8-16.5c1-8.4,8.8-14.2,17-12.9l8.1,1.3C552,314.8,553.1,314,553.3,312.7z"/>
<path class="st19" d="M252.8,247.1c0.9-0.8,2.4-0.7,3,0.3c0.6,1-0.1,1.9-1.1,2.9l-7.4,6.8c-3.9,3.7-7,9.7-4.6,14.5l3.7,7.3
	c1.6,3.3,0.5,7.4-2.7,9.1c-3.3,1.8-7.4,0.5-9.1-2.9l-2.7-5.4c-1-1.9-3.3-2.7-5.3-1.8h0c-1.9,1-2.7,3.3-1.8,5.3l3.1,6.2
	c1.8,3.6,0.6,8.1-3,10.1c-3.7,2-8.2,0.5-10.1-3.2l-4.2-8.5c-0.4-0.8-1.4-1.2-2.2-0.7l0,0c-0.8,0.4-1.2,1.4-0.7,2.2l7.6,15.2
	c2.9,5.9,0.8,13.3-5,16.3c-5.9,3.1-13.3,0.7-16.2-5.3l-2.6-5.3c-1.5-3-5.2-4.2-8.2-2.7h0c-3,1.5-4.2,5.2-2.7,8.2l4.6,9.2
	c6.3,12.6,1.7,28.1-10.7,34.7c-12.9,6.9-28.8,1.7-35.2-11.2l-4.8-9.7c-0.6-1.3-2.2-1.8-3.5-1.2h0c-1.3,0.6-1.8,2.2-1.2,3.5l0.2,0.5
	c3.1,6.3,1,14.1-5.1,17.5c-6.5,3.6-14.7,1.1-18-5.5l-4.5-9c-1-2-3.4-2.8-5.4-1.8l-5.6,2.8c-1.5,0.7-3.1,0.8-4.5,0.3
	c-1.5-0.5-2.6-1.6-3.5-3l-2.6-5.3l161.5-80.5L252.8,247.1z"/>
<path class="st20" d="M150,276.3L150,276.3c1.6-0.8,2.3-2.8,1.5-4.5l-3.6-7.2c-3.5-7-1.1-15.7,5.7-19.5c7.3-4.1,16.4-1.2,20.1,6.2
	l5.7,11.3c2.4,4.8,8.1,6.7,12.9,4.3h0c4.8-2.4,6.7-8.1,4.3-12.9l-3.6-7.2c-2.4-4.8-0.9-10.8,3.8-13.4c5.1-2.9,11.5-1,14,4.2
	l6.7,13.4c0.7,1.5,2.6,2.1,4.1,1.4h0c1.5-0.7,2.1-2.6,1.4-4.1l-2.3-4.7c-1.5-3-0.7-6.8,2.1-8.7c3.4-2.3,7.9-1,9.7,2.6l1,2
	c3.5,6.9,8.8,17.5,8.8,17.5l0,0c-51.7,36-108.3,64.6-168,84.9l-7.1,2.4c-3.2,1.6-7.3,0.5-9-2.7c-1.8-3.3-0.5-7.5,2.9-9.1l3.5-1.8
	c1.4-0.7,1.9-2.4,1.3-3.8l-0.8-1.6c-1.6-3.3-0.5-7.4,2.7-9.1c3.3-1.8,7.4-0.5,9.1,2.9l0,0c1.2,2.4,4.1,3.4,6.5,2.2l0.6-0.3
	c2.4-1.2,3.4-4.1,2.2-6.5L79.9,302c-2.6-5.2-0.3-11.5,5.1-13.7c4.9-2.1,10.6,0.3,13,5.1l0.2,0.5c0.9,1.9,3.3,2.7,5.2,1.7l0,0
	c1.9-0.9,2.7-3.3,1.7-5.2l-3.3-6.6c-5.2-10.5-1.5-23.4,8.8-29c10.8-5.9,24.2-1.6,29.6,9.3l5.3,10.7
	C146.4,276.4,148.3,277.1,150,276.3z"/>
<path class="st15" d="M253.6,193.3c-17.6,22.1-49.7,25.7-71.8,8.2l-8.5-6.7c0,0,76.6-94.4,79.1-99.3c1.5-2.9,4.9-17,4.9-17
	S284,155.1,253.6,193.3z"/>
<path class="st16" d="M252.4,95.4l-11.5,23.1c-13.8,27.7-34.1,51.7-59.1,70l-8.4,6.1l-0.1-0.2l-7.2,5.3
	c-19.3,14.2-40.6,25.4-63.2,33.3c0,0-10.4,4.7-11.3,2.5c-0.7-1.6,0.4-2.5,2.2-3.4l8.2-3c22.2-8.2,43.1-19.7,61.9-34.1l0,0
	c4.2-2.2,3.3-5.4-0.4-8.3l-3.8-3c-20.2-16.1-19.3-42.1-3.3-62.3C184.1,86.4,252.4,95.4,252.4,95.4z"/>
<path class="st17" d="M399.5,297.5l-10.9,5.8L210,371.4c5.5,14.4,43.6,29.8,96.4,9.6C359.3,360.9,399.5,297.5,399.5,297.5z"/>
<path class="st18" d="M388.3,303.6l-13.1,7.8c-50.8,30.1-106.8,50.6-165.1,60.3l0,0l-18.3,1.9c-1.7,0.2-2.8-0.5-2.9-1.4
	c-0.1-1,0.8-1.8,2.5-2l10.6-1.2c4.4-0.5,6.8-2.9,8.1-7.1c4.1-14.4,24.4-34.8,63.4-49.7C322.7,293.3,388.3,303.6,388.3,303.6z"/>
<path class="st21" d="M316.8,147.6l0.6,60.1l-0.4,3.1c-3.1,24.1-8.6,47.8-16.6,70.8l-4.3,12.3c0,0.7,0.9,1.1,1.3,1.1
	s0.7-0.4,0.7-1.1l3.5-10.2c8.2-23.8,13.9-48.5,16.8-73.5v0c0-1.4,0.6-2.7,1.7-3.6c3.8-2.9,7.4-11.2,7.3-24.3
	C327.4,165.7,316.8,147.6,316.8,147.6z"/>
<path class="st22" d="M316.8,143.2l0.5,64.6c-4.9,0-11.3-9.4-11.4-27.2S316.8,143.2,316.8,143.2z"/>
<path class="st21" d="M364.4,197.2l-46.6,36.3l-4.5,3.5c-0.4,0.3-0.5,0.7-0.3,1c0.2,0.2,0.6,0.2,1-0.1l2.6-2
	c1.1-0.8,2.5-1.1,3.8-0.8c4.5,1.2,13.1-0.9,23.3-8.8C356.6,216.2,364.4,197.2,364.4,197.2z"/>
<path class="st22" d="M367.9,194.6l-50.1,39c-2.9-3.8,0.6-14.4,14.5-25.2C346.1,197.6,367.9,194.6,367.9,194.6z"/>
<path class="st21" d="M356.5,230l-46.6,36.3l-4.5,3.5c-0.4,0.3-0.5,0.7-0.3,1c0.2,0.2,0.6,0.2,1-0.1l2.6-2c1.1-0.8,2.5-1.1,3.8-0.8
	c4.5,1.2,13.1-0.9,23.3-8.8C348.7,249.1,356.5,230,356.5,230z"/>
<path class="st22" d="M360,227.4l-50.1,39c-2.9-3.8,0.6-14.4,14.5-25.2C338.2,230.4,360,227.4,360,227.4z"/>
<path class="st22" d="M276,184l33,49l3.2,4.7c0.3,0.4,0.7,0.6,0.9,0.4c0.2-0.2,0.3-0.6,0-1l-1.9-2.8c-0.8-1.1-0.9-2.6-0.5-3.9
	c1.5-4.4,0-13.2-7.2-23.9C294.5,193.1,276,184,276,184z"/>
<path class="st21" d="M273.6,180.3L309,233c-4,2.6-14.3-1.6-24.1-16.2S273.6,180.3,273.6,180.3z"/>
<path class="st22" d="M265.6,217.4l35.1,47.5l3.4,4.6c0.3,0.4,0.7,0.5,0.9,0.4c0.2-0.2,0.2-0.6-0.1-1l-2-2.7
	c-0.8-1.1-1.1-2.5-0.7-3.8c1.3-4.5-0.5-13.1-8.2-23.6C284.4,225.7,265.6,217.4,265.6,217.4z"/>
<path class="st21" d="M263.1,213.8l37.7,51.1c-3.8,2.8-14.4-1-24.8-15.1C265.6,235.7,263.1,213.8,263.1,213.8z"/>
<path class="st22" d="M261.6,49.9c0.6,0.2,1.3-0.2,1.4-0.8c0.1-0.6-0.5-0.9-1.2-1.1l-5.1-1.6c-2.7-0.9-5.5-3.1-5.5-5.9l0.1-4.4
	c0.1-1.9-1.4-3.7-3.3-3.8c-2-0.1-3.7,1.4-3.7,3.4l-0.1,3.2c0,1.2-1,2.1-2.1,2l0,0c-1.2,0-2.1-1-2-2.1l0.1-3.7c0.1-2.1-1.5-4-3.7-4.2
	c-2.2-0.1-4.1,1.6-4.1,3.8l-0.1,5c0,0.5-0.4,0.9-0.9,0.9l0,0c-0.5,0-0.9-0.4-0.9-0.9l0.2-9c0.1-3.5-2.6-6.6-6.1-6.7
	c-3.6-0.2-6.5,2.6-6.6,6.2l-0.1,3.1c0,1.8-1.5,3.2-3.3,3.2v0c-1.8,0-3.2-1.5-3.2-3.3l0.1-5.4c0.2-7.5-5.5-13.9-12.9-14.3
	c-7.7-0.4-14.2,5.6-14.4,13.3l-0.2,5.7c0,0.8-0.7,1.4-1.4,1.3l0,0c-0.8,0-1.4-0.7-1.3-1.4l0-0.3c0.1-3.7-2.7-7-6.4-7.3
	c-4-0.3-7.3,2.8-7.4,6.7l-0.1,5.3c0,1.2-1,2.1-2.2,2.1l-3.3-0.1c-0.9,0-1.7,0.3-2.3,0.9c-0.6,0.6-0.9,1.4-1,2.2l-0.1,3.1l95.7,2.6
	L261.6,49.9z"/>
<path class="st21" d="M205.6,58.8L205.6,58.8c1,0,1.7,0.8,1.7,1.8l-0.1,4.3c-0.1,4.1,3,7.8,7.1,8.1c4.4,0.3,8.2-3.1,8.3-7.5l0.2-6.7
	c0.1-2.8,2.4-5,5.2-5l0,0c2.8,0.1,5,2.4,5,5.2l-0.1,4.3c-0.1,2.8,2,5.4,4.8,5.6c3.1,0.3,5.7-2.1,5.8-5.2l0.2-8
	c0-0.9,0.8-1.6,1.7-1.6h0c0.9,0,1.6,0.8,1.6,1.7l-0.1,2.8c0,1.8,1.2,3.4,3,3.7c2.1,0.3,4-1.3,4.1-3.4l0-1.2
	c0.1-4.1,0.3-10.4,0.3-10.4l0,0c-33-5.7-66.5-6.8-99.8-3.2l-4,0.4c-1.9-0.1-3.6,1.4-3.7,3.3c-0.1,2,1.4,3.7,3.4,3.7l2.1,0.1
	c0.8,0,1.5,0.7,1.4,1.5l0,1c-0.1,1.9,1.4,3.7,3.3,3.8c2,0.1,3.7-1.4,3.7-3.4v0c0-1.4,1.2-2.6,2.7-2.5l0.3,0c1.4,0,2.6,1.2,2.5,2.7
	l-0.2,7.4c-0.1,3.1,2.4,5.6,5.5,5.5c2.8-0.1,5-2.5,5.1-5.4l0-0.3c0-1.1,1-2,2.1-2l0,0c1.1,0,2,1,2,2.1l-0.1,3.9
	c-0.2,6.2,4.5,11.6,10.7,12c6.5,0.4,12-4.7,12.2-11.1l0.2-6.3C203.9,59.6,204.7,58.8,205.6,58.8z"/>
<path class="st20" d="M371.2,181.3l-3.6-9.8L293.2,28c11.6-5.9,44.3,5.7,66.3,48.2C381.4,118.6,371.2,181.3,371.2,181.3z"/>
<path class="st19" d="M367.5,171.1l-3.9-12.3c-15.1-47.6-39-92-70.2-130.9l0,0l-10.5-11.5c-1-1.1-2.1-1.3-2.7-0.8
	c-0.6,0.5-0.5,1.6,0.5,2.7l6.1,6.7c2.5,2.8,2.7,5.7,1.1,9c-5.5,11.4-4.2,35.6,12.1,67C320.3,140.7,367.5,171.1,367.5,171.1z"/>
<g>
	<path class="st18" d="M406.3,78.6c7.3-16.5,26.6-24.1,43.1-16.8l6.3,2.8c0,0-31.9,71-32.7,74.4c-0.4,2.1-0.2,11.4-0.2,11.4
		S393.7,107.2,406.3,78.6z"/>
	<path class="st17" d="M423.1,139l3.4-16.2c4-19.4,12.6-37.6,25.1-53l4.2-5.2l0.1,0.1l3.6-4.5c9.6-11.9,21-22.4,33.7-30.9
		c0,0,5.7-4.6,6.6-3.4c0.7,0.9,0.2,1.6-0.8,2.5l-4.6,3.2c-12.4,8.7-23.4,19.2-32.7,31.2l0,0c-2.2,2.1-1.2,3.9,1.6,5.1l2.9,1.3
		c15.1,6.6,18.8,22.9,12.2,38C466.8,133.4,423.1,139,423.1,139z"/>
</g>
<path class="st22" d="M598.2,148.1c-10-15.6-30.8-20-46.3-10l-6,3.8c0,0,43.8,66.6,45.1,70c0.8,2,2.1,11.4,2.1,11.4
	S615.6,175,598.2,148.1z"/>
<path class="st21" d="M591,211.9l-6-15.8c-7.2-19-18.9-36-34-49.5l-5.1-4.5l-0.1,0.1l-4.3-3.9c-11.7-10.5-24.8-19.2-39.1-25.8
	c0,0-6.5-3.7-7.2-2.3c-0.6,1,0.1,1.6,1.2,2.4l5.1,2.5c14,6.8,26.8,15.7,38.2,26.3v0c2.6,1.7,1.8,3.7-0.8,5.4l-2.7,1.7
	c-14.2,9.2-15.4,26.2-6.2,40.4C545.9,213.3,591,211.9,591,211.9z"/>
<g>
	<path class="st18" d="M47.5,20.3l34.7,61l1.4,3.4c10.5,26.3,18.3,53.7,23.2,81.6l2.6,14.9c0.4,0.7,1.6,0.6,2,0.4
		c0.4-0.2,0.5-0.8,0.1-1.5l-2.2-12.5c-5.1-29-13.4-57.3-24.6-84.5l0,0c-0.8-1.4-0.9-3.1-0.2-4.6c2.2-5.1,1.2-15.6-6.4-28.9
		C68.5,32.7,47.5,20.3,47.5,20.3z"/>
	<path class="st17" d="M45,15.7l37.2,65.6c-4.9,2.8-16.8-3.2-27.1-21.3S45,15.7,45,15.7z"/>
	<path class="st17" d="M124.2,43.8l-27,63.5l-2.6,6.1c-0.2,0.6-0.1,1,0.2,1.2c0.3,0.1,0.7-0.1,1-0.7l1.5-3.6
		c0.6-1.5,1.9-2.6,3.5-2.9c5.3-1.3,12.9-8.3,18.8-22.2C127,67.7,124.2,43.8,124.2,43.8z"/>
	<path class="st18" d="M126.3,39.2l-29,68.2c-5.1-2.2-7.5-15,0.5-33.9S126.3,39.2,126.3,39.2z"/>
	<path class="st17" d="M134.7,81.8l-27,63.5l-2.6,6.1c-0.2,0.6-0.1,1,0.2,1.2c0.3,0.1,0.7-0.1,1-0.7l1.5-3.6
		c0.6-1.5,1.9-2.6,3.5-2.9c5.3-1.3,12.9-8.3,18.8-22.2C137.6,105.6,134.7,81.8,134.7,81.8z"/>
	<path class="st18" d="M136.8,77.1l-29,68.2c-5.1-2.2-7.5-15,0.5-33.9S136.8,77.1,136.8,77.1z"/>
	<path class="st18" d="M26.5,80.5L88,111.8l6,3c0.6,0.3,1,0.2,1.2-0.1s0-0.7-0.6-1l-3.4-1.8c-1.4-0.7-2.4-2.1-2.7-3.7
		c-0.9-5.3-7.4-13.4-20.9-20.3C50.5,79.3,26.5,80.5,26.5,80.5z"/>
	<path class="st17" d="M22,78.1l66,33.6c-2.5,4.9-15.5,6.5-33.7-2.8S22,78.1,22,78.1z"/>
	<path class="st18" d="M34.9,120.5L97.6,149l6.1,2.7c0.6,0.3,1,0.2,1.2-0.2s-0.1-0.7-0.6-1l-3.5-1.6c-1.5-0.7-2.5-2-2.9-3.5
		c-1.2-5.3-8-13.1-21.8-19.3C58.8,118.2,34.9,120.5,34.9,120.5z"/>
	<path class="st17" d="M30.2,118.3l67.4,30.7c-2.3,5.1-15.2,7.2-33.8-1.3C45.2,139.2,30.2,118.3,30.2,118.3z"/>
</g>
<path class="st21" d="M42.5,302.4l1.3-8.2l5-127.2c10.4,0.2,28.6,20.4,27.2,58S42.5,302.4,42.5,302.4z"/>
<path class="st22" d="M43.9,294l2.1-10c8.3-38.7,9.3-78.3,2.9-116.9l0,0l-2.8-11.9c-0.3-1.1-0.9-1.7-1.6-1.5c-0.6,0.2-1,0.9-0.8,2.1
	l1.6,6.9c0.6,2.9-0.4,4.9-2.8,6.7c-8.4,5.9-17,23.2-18.1,51C23,255.4,43.9,294,43.9,294z"/>
<g>
	<path class="st15" d="M20.8,343.7l3.9,3l64.7,38.7c-3,5.4-18.7,9.1-37.9-2.3C32.3,371.6,20.8,343.7,20.8,343.7z"/>
	<path class="st16" d="M24.7,346.8l4.6,3.9c17.7,15.3,38.1,27.1,60,34.7l0,0l7,1.9c0.7,0.2,1.1,0,1.2-0.4c0.1-0.4-0.2-0.8-0.9-1
		l-4-1.2c-1.7-0.5-2.5-1.6-2.7-3.4c-0.7-6-7.2-15.5-21.4-23.9C50.7,346.9,24.7,346.8,24.7,346.8z"/>
</g>
<path class="st19" d="M465.9,384.5c-14,8.3-32.2,3.7-40.5-10.4l-3.2-5.4c0,0,60.8-35.3,63.2-37.4c1.4-1.3,6.2-8.2,6.2-8.2
	S490.2,370.1,465.9,384.5z"/>
<path class="st20" d="M485.4,331.3l-11,10.1c-13.2,12.1-29.1,20.9-46.4,25.7l-5.8,1.6l0-0.1l-5,1.4c-13.3,3.7-27.2,5.4-41,5
	c0,0-6.6,0.4-6.6-1c0-1,0.7-1.3,1.9-1.4l5,0c13.7,0.1,27.3-1.8,40.5-5.7l0,0c2.7-0.3,2.9-2.2,1.5-4.6l-1.4-2.4
	c-7.6-12.8-1.8-26.7,11.1-34.4C450.3,312.4,485.4,331.3,485.4,331.3z"/>
<path class="st16" d="M510.9,322l-39.4-78.7l-2.6-3.8c-20.1-29.3-43.2-56.5-68.9-81l-13.8-13.1c-0.5-0.9,0.5-2.1,1-2.3
	c0.5-0.3,1.2,0.1,1.6,1l11.5,11c26.6,25.5,50.5,53.8,71,84.5l0,0c0.9,1.8,2.6,3.1,4.7,3.5c6.8,1.2,17.1,9.6,25.8,26.8
	C512.5,291.4,510.9,322,510.9,322z"/>
<path class="st15" d="M513.9,327.8l-42.5-84.5c-6.3,3.2-8.4,19.8,3.4,43.1C486.5,309.8,513.9,327.8,513.9,327.8z"/>
<path class="st16" d="M539.7,225.7l-85-16.1l-8.2-1.6c-0.8-0.1-1.2-0.6-1.1-1c0.1-0.4,0.6-0.7,1.4-0.5l4.8,0.9c2,0.4,4-0.2,5.5-1.6
	c5-4.6,17.7-7.6,36.3-4.1C516.8,206.1,539.7,225.7,539.7,225.7z"/>
<path class="st15" d="M546,226.7l-91.3-17.2c-1.3,6.9,10.4,18.3,35.6,23.1S546,226.7,546,226.7z"/>
<path class="st16" d="M507.5,188.2l-85-16.1l-8.2-1.6c-0.8-0.1-1.2-0.6-1.1-1c0.1-0.4,0.6-0.7,1.4-0.5l4.8,0.9c2,0.4,4-0.2,5.5-1.6
	c5-4.6,17.7-7.6,36.3-4.1C484.6,168.6,507.5,188.2,507.5,188.2z"/>
<path class="st15" d="M513.8,189.3L422.5,172c-1.3,6.9,10.4,18.3,35.6,23.1C483.4,199.9,513.8,189.3,513.8,189.3z"/>
<path class="st15" d="M433.4,302l10.1-85.9l1-8.3c0.1-0.8,0.5-1.2,0.9-1.2c0.4,0,0.7,0.5,0.6,1.3l-0.6,4.8c-0.2,2,0.5,4,1.9,5.4
	c4.9,4.7,8.8,17.1,6.6,35.9C451.4,277.8,433.4,302,433.4,302z"/>
<path class="st16" d="M432.8,308.3l10.9-92.3c-6.9-0.8-17.6,11.7-20.6,37.2S432.8,308.3,432.8,308.3z"/>
<path class="st15" d="M397.6,265.4l13.9-85.4l1.4-8.2c0.1-0.8,0.6-1.2,1-1.1c0.4,0.1,0.7,0.6,0.6,1.4l-0.8,4.8c-0.3,2,0.3,4,1.7,5.4
	c4.7,4.9,8.1,17.5,5,36.2C416.5,242.1,397.6,265.4,397.6,265.4z"/>
<path class="st16" d="M396.6,271.8l14.9-91.7c-6.9-1.1-18.1,10.9-22.2,36.2C385.3,241.6,396.6,271.8,396.6,271.8z"/>
<path class="st19" d="M606.7,26.6l-41.4,33.9l-2.4,1.5c-18.4,11.3-37.9,20.6-58.3,27.8l-10.9,3.9c-0.5,0.4-0.2,1.3,0,1.5
	c0.2,0.3,0.7,0.3,1.1-0.1l9.1-3.2c21.1-7.6,41.3-17.4,60.3-29.2l0,0c1-0.8,2.2-1.1,3.4-0.8c4.1,1,11.8-1.1,20.9-8.5
	C600,44,606.7,26.6,606.7,26.6z"/>
<path class="st20" d="M609.8,24.2l-44.5,36.3c-2.7-3.4,0.3-13,12.5-23.1S609.8,24.2,609.8,24.2z"/>
<path class="st19" d="M598.8,87.2L547.7,75l-4.9-1.1c-0.5-0.1-0.8,0-0.9,0.3c-0.1,0.3,0.2,0.5,0.6,0.6l2.9,0.7
	c1.2,0.3,2.2,1.1,2.7,2.2c1.6,3.8,7.9,8.6,19.1,11.3C581.3,92.4,598.8,87.2,598.8,87.2z"/>
<path class="st20" d="M602.6,88.2l-54.9-13.1c1-4.1,10.3-7.6,25.5-4C588.3,74.7,602.6,88.2,602.6,88.2z"/>
<path class="st19" d="M571.7,100l-51.1-12.2l-4.9-1.1c-0.5-0.1-0.8,0-0.9,0.3c-0.1,0.3,0.2,0.5,0.6,0.6l2.9,0.7
	c1.2,0.3,2.2,1.1,2.7,2.2c1.6,3.8,7.9,8.6,19.1,11.3C554.1,105.1,571.7,100,571.7,100z"/>
<path class="st20" d="M575.4,100.9l-54.9-13.1c1-4.1,10.3-7.6,25.5-4S575.4,100.9,575.4,100.9z"/>
<path class="st19" d="M558.8,18.6l-15.7,50.1l-1.5,4.9c-0.1,0.5,0,0.8,0.2,0.9c0.3,0.1,0.5-0.1,0.7-0.6l0.9-2.8
	c0.4-1.2,1.3-2.1,2.4-2.5c3.9-1.4,9.1-7.3,12.6-18.3C562.8,36.4,558.8,18.6,558.8,18.6z"/>
<path class="st20" d="M560,14.9l-16.8,53.8c-4-1.3-6.8-10.8-2.2-25.7S560,14.9,560,14.9z"/>
<path class="st19" d="M529.9,29.9l-13.4,50.8l-1.3,4.9c-0.1,0.5,0,0.8,0.3,0.9c0.3,0.1,0.5-0.1,0.7-0.6l0.8-2.8
	c0.3-1.2,1.2-2.1,2.3-2.6c3.8-1.6,8.8-7.7,11.7-18.8C534.6,47.6,529.9,29.9,529.9,29.9z"/>
<path class="st20" d="M530.9,26.2l-14.4,54.5c-4.1-1.1-7.3-10.5-3.3-25.6C517.1,40.1,530.9,26.2,530.9,26.2z"/>
</svg>
